<svg width="23" height="23" viewBox="0 0 23 23" fill="none" xmlns="http://www.w3.org/2000/svg">
<g clip-path="url(#clip0_1_2007)">
<path d="M2.02148 0.0449219H20.9785C22.0932 0.0449219 23 0.95176 23 2.06641V20.9336C23 22.0482 22.0932 22.9551 20.9785 22.9551H2.02148C0.906837 22.9551 0 22.0482 0 20.9336V2.06641C0 0.95176 0.906837 0.0449219 2.02148 0.0449219ZM20.9785 1.39258H2.02148C1.64993 1.39258 1.34766 1.69486 1.34766 2.06641V5.43555H21.6523V2.06641C21.6523 1.69486 21.3501 1.39258 20.9785 1.39258ZM2.02148 21.6074H20.9785C21.3501 21.6074 21.6523 21.3051 21.6523 20.9336V6.7832H1.34766V20.9336C1.34766 21.3051 1.64993 21.6074 2.02148 21.6074Z" fill="#FFA155"/>
<path d="M9.2129 8.85918C9.55493 8.7126 9.9511 8.87104 10.0977 9.21307L14.1406 18.6467C14.2873 18.9887 14.1288 19.3849 13.7868 19.5314C13.4446 19.6781 13.0485 19.5195 12.902 19.1775L8.859 9.74396C8.71238 9.40188 8.87086 9.00576 9.2129 8.85918Z" fill="#444CFC"/>
<path d="M15.017 11.0791C15.2495 10.7885 15.6736 10.7414 15.9641 10.9738L19.3332 13.6692C19.6701 13.9386 19.6703 14.4519 19.3332 14.7215L15.9641 17.4168C15.6735 17.6493 15.2494 17.6022 15.017 17.3116C14.7845 17.021 14.8316 16.5969 15.1222 16.3645L17.8336 14.1953L15.1222 12.0262C14.8316 11.7937 14.7845 11.3697 15.017 11.0791Z" fill="#444CFC"/>
<path d="M3.66694 13.6691L7.03608 10.9738C7.32668 10.7413 7.75075 10.7884 7.98317 11.079C8.21564 11.3696 8.16856 11.7937 7.87792 12.0261L5.16653 14.1953L7.87792 16.3644C8.16856 16.5969 8.21564 17.0209 7.98317 17.3115C7.75039 17.6024 7.32628 17.649 7.03608 17.4167L3.66694 14.7214C3.33008 14.452 3.32985 13.9387 3.66694 13.6691Z" fill="#444CFC"/>
<path d="M19.5859 4.08789C19.2138 4.08789 18.9121 3.78621 18.9121 3.41406C18.9121 3.04192 19.2138 2.74023 19.5859 2.74023C19.9581 2.74023 20.2598 3.04192 20.2598 3.41406C20.2598 3.78621 19.9581 4.08789 19.5859 4.08789Z" fill="#FFA155"/>
<path d="M16.8906 4.08789C16.5185 4.08789 16.2168 3.78621 16.2168 3.41406C16.2168 3.04192 16.5185 2.74023 16.8906 2.74023C17.2628 2.74023 17.5645 3.04192 17.5645 3.41406C17.5645 3.78621 17.2628 4.08789 16.8906 4.08789Z" fill="#FFA155"/>
<path d="M14.1953 4.08789C13.8232 4.08789 13.5215 3.78621 13.5215 3.41406C13.5215 3.04192 13.8232 2.74023 14.1953 2.74023C14.5675 2.74023 14.8691 3.04192 14.8691 3.41406C14.8691 3.78621 14.5675 4.08789 14.1953 4.08789Z" fill="#FFA155"/>
<path d="M7.45703 4.08789H3.41406C3.04193 4.08789 2.74023 3.7862 2.74023 3.41406C2.74023 3.04193 3.04193 2.74023 3.41406 2.74023H7.45703C7.82916 2.74023 8.13086 3.04193 8.13086 3.41406C8.13086 3.7862 7.82916 4.08789 7.45703 4.08789Z" fill="#FFA155"/>
</g>
<defs>
<clipPath id="clip0_1_2007">
<rect width="23" height="23" fill="white" transform="matrix(-1 0 0 1 23 0)"/>
</clipPath>
</defs>
</svg>
